<svg style="position: absolute; width: 0; height: 0; overflow: hidden;" version="1.1" xmlns="http://www.w3.org/2000/svg"> 
<defs>
<symbol id="icon-html5" viewBox="0 0 128 128">
<title></title>
<path d="M9.032 2l10.005 112.093 44.896 12.401 45.02-12.387 10.015-112.107h-109.936zm89.126 26.539l-.627 7.172-.276 3.289h-52.665000000000006l1.257 14h50.156000000000006l-.336 3.471-3.233 36.119-.238 2.27-28.196 7.749v.002l-.034.018-28.177-7.423-1.913-21.206h13.815000000000001l.979 10.919 15.287 4.081h.043v-.546l15.355-3.875 1.604-17.579h-47.698l-3.383-38.117-.329-3.883h68.939l-.33 3.539z"></path>
</symbol>
<symbol id="icon-css3" viewBox="0 0 128 128">
<title></title>
<path d="M8.76 1l10.055 112.883 45.118 12.58 45.244-12.626 10.063-112.837h-110.48zm89.591 25.862l-3.347 37.605.01.203-.014.467v-.004l-2.378 26.294-.262 2.336-28.36 7.844v.001l-.022.019-28.311-7.888-1.917-21.739h13.883l.985 11.054 15.386 4.17-.004.008v-.002l15.443-4.229 1.632-18.001h-32.282999999999994l-.277-3.043-.631-7.129-.331-3.828h34.748999999999995l1.264-14h-52.926l-.277-3.041-.63-7.131-.332-3.828h69.281l-.331 3.862z"></path>
</symbol>
<symbol id="icon-javascript" viewBox="0 0 128 128">
<title></title>
<path d="M2 1v125h125v-125h-125zm66.119 106.513c-1.845 3.749-5.367 6.212-9.448 7.401-6.271 1.44-12.269.619-16.731-2.059-2.986-1.832-5.318-4.652-6.901-7.901l9.52-5.83c.083.035.333.487.667 1.071 1.214 2.034 2.261 3.474 4.319 4.485 2.022.69 6.461 1.131 8.175-2.427 1.047-1.81.714-7.628.714-14.065-.001-10.115.046-20.188.046-30.188h11.709c0 11 .06 21.418 0 32.152.025 6.58.596 12.446-2.07 17.361zm48.574-3.308c-4.07 13.922-26.762 14.374-35.83 5.176-1.916-2.165-3.117-3.296-4.26-5.795 4.819-2.772 4.819-2.772 9.508-5.485 2.547 3.915 4.902 6.068 9.139 6.949 5.748.702 11.531-1.273 10.234-7.378-1.333-4.986-11.77-6.199-18.873-11.531-7.211-4.843-8.901-16.611-2.975-23.335 1.975-2.487 5.343-4.343 8.877-5.235l3.688-.477c7.081-.143 11.507 1.727 14.756 5.355.904.916 1.642 1.904 3.022 4.045-3.772 2.404-3.76 2.381-9.163 5.879-1.154-2.486-3.069-4.046-5.093-4.724-3.142-.952-7.104.083-7.926 3.403-.285 1.023-.226 1.975.227 3.665 1.273 2.903 5.545 4.165 9.377 5.926 11.031 4.474 14.756 9.271 15.672 14.981.882 4.916-.213 8.105-.38 8.581z"></path>
</symbol>
<symbol id="icon-jquery" viewBox="0 0 128 128">
<title></title>
<path d="M65.283 106.928c-.828-.187-1.633-.446-2.441-.685l-.609-.185c-.79-.242-1.573-.497-2.352-.765l-.323-.117c-.698-.245-1.388-.504-2.074-.769l-.582-.229c-.752-.297-1.5-.607-2.238-.931l-.447-.198c-.635-.288-1.263-.578-1.889-.879l-.546-.262c-.491-.239-.977-.493-1.461-.743-.324-.171-.654-.332-.975-.51-.592-.317-1.173-.646-1.751-.982l-.591-.33c-.769-.452-1.529-.921-2.28-1.397l-.615-.41c-.546-.351-1.088-.709-1.623-1.079l-.523-.367c-.516-.365-1.026-.734-1.534-1.109l-.679-.514c-.464-.355-.927-.713-1.384-1.082l-.617-.495c-.581-.479-1.156-.959-1.724-1.453l-.188-.159c-.614-.539-1.217-1.092-1.812-1.647l-.51-.491c-.441-.42-.875-.843-1.302-1.277l-.51-.509c-.543-.556-1.076-1.119-1.599-1.69l-.078-.084c-.553-.604-1.092-1.221-1.621-1.844l-.424-.504c-.395-.475-.785-.956-1.167-1.442l-.427-.532c-.459-.596-.908-1.189-1.347-1.794-12.15-16.574-16.516-39.432-6.804-58.204l-8.611 10.921c-11.029 15.851-9.656 36.476-1.231 53.32.2.404.411.801.617 1.198l.395.759.245.437.439.786c.262.461.53.92.805 1.379l.458.756c.304.491.615.976.934 1.46l.398.614c.438.655.888 1.309 1.352 1.951l.039.05.228.308c.4.553.814 1.099 1.232 1.639l.463.59c.373.469.752.935 1.139 1.399l.435.52c.518.61 1.047 1.217 1.586 1.812l.032.033.062.068c.526.575 1.066 1.137 1.612 1.699l.517.521c.423.426.853.845 1.287 1.262l.526.5c.58.547 1.166 1.083 1.764 1.607l.028.022.307.262c.526.456 1.062.909 1.603 1.353l.664.529c.441.354.887.702 1.336 1.044l.714.543c.495.365.995.724 1.499 1.075l.546.387.15.107c.478.329.967.646 1.456.963l.63.42c.749.474 1.51.943 2.278 1.396l.63.355c.565.326 1.134.646 1.711.959.312.168.632.327.946.488.407.213.811.429 1.225.636l.283.137.501.242c.641.306 1.287.607 1.94.897l.41.184c.748.327 1.502.641 2.263.941l.551.217c.704.271 1.418.539 2.135.791l.268.093c.786.275 1.581.53 2.381.779l.575.172c.814.245 1.618.538 2.458.693 53.339 9.727 68.833-32.053 68.833-32.053-13.014 16.954-36.112 21.426-57.997 16.447zM46.069 63.697c1.195 1.713 2.52 3.751 4.105 5.127.575.633 1.176 1.251 1.79 1.858l.472.465c.596.578 1.202 1.146 1.828 1.698l.074.064.018.018c.693.608 1.408 1.191 2.135 1.767l.484.378c.729.559 1.472 1.107 2.233 1.631l.065.049c.336.232.679.448 1.02.672l.482.319c.544.349 1.096.689 1.656 1.015l.234.136c.483.278.973.552 1.463.818l.521.271c.339.177.678.358 1.024.53l.155.07c.702.346 1.411.68 2.136.995l.472.194c.578.246 1.163.486 1.75.71l.75.275c.533.198 1.068.378 1.608.559l.727.233c.767.238 1.525.539 2.324.672 41.183 6.823 50.69-24.886 50.69-24.886-8.57 12.343-25.168 18.233-42.879 13.635-.787-.207-1.562-.431-2.333-.674l-.7-.227c-.548-.177-1.092-.365-1.632-.562l-.736-.274c-.591-.228-1.176-.462-1.756-.708l-.473-.2c-.727-.316-1.443-.65-2.148-.999-.364-.177-.721-.364-1.078-.548l-.622-.32c-.458-.248-.914-.506-1.363-.77l-.326-.185c-.558-.325-1.106-.661-1.65-1.008l-.498-.332c-.358-.232-.717-.469-1.069-.707-.759-.524-1.497-1.072-2.226-1.628l-.501-.395c-7.752-6.12-13.897-14.486-16.819-23.971-3.062-9.836-2.401-20.878 2.903-29.84l-6.517 9.2c-7.977 11.478-7.543 26.844-1.321 38.983 1.043 2.038 2.216 4.013 3.528 5.892zM89.476 49.498c.339.125.678.237 1.022.354l.451.143c.484.152.966.329 1.467.424 22.739 4.394 28.908-11.669 30.549-14.034-5.403 7.779-14.482 9.646-25.623 6.942-.88-.213-1.848-.531-2.696-.832-1.088-.388-2.16-.83-3.201-1.329-1.979-.951-3.864-2.104-5.612-3.424-9.969-7.565-16.162-21.994-9.657-33.745l-3.52 4.851c-4.702 6.92-5.164 15.514-1.901 23.156 3.441 8.112 10.492 14.475 18.721 17.494z"></path>
</symbol>
<symbol id="icon-sass" viewBox="0 0 128 128">
<title></title>
<path d="M1.219 56.156c0 .703.207 1.167.323 1.618.756 2.933 2.381 5.45 4.309 7.746 2.746 3.272 6.109 5.906 9.554 8.383 2.988 2.148 6.037 4.248 9.037 6.38.515.366 1.002.787 1.561 1.236-.481.26-.881.489-1.297.7-3.959 2.008-7.768 4.259-11.279 6.986-2.116 1.644-4.162 3.391-5.607 5.674-2.325 3.672-3.148 7.584-1.415 11.761.506 1.22 1.278 2.274 2.367 3.053.353.252.749.502 1.162.6 1.058.249 2.136.412 3.207.609l3.033-.002c3.354-.299 6.407-1.448 9.166-3.352 4.312-2.976 7.217-6.966 8.466-12.087.908-3.722.945-7.448-.125-11.153-.099-.344-.224-.681-.354-1.014-.13-.333-.283-.657-.463-1.072l6.876-3.954.103.088c-.125.409-.258.817-.371 1.23-.817 2.984-1.36 6.02-1.165 9.117.208 3.3 1.129 6.389 3.061 9.146 1.562 2.23 5.284 2.313 6.944.075.589-.795 1.16-1.626 1.589-2.513 1.121-2.315 2.159-4.671 3.23-7.011l.187-.428c-.077 1.108-.167 2.081-.208 3.055-.064 1.521.025 3.033.545 4.48.445 1.238 1.202 2.163 2.62 2.326.97.111 1.743-.333 2.456-.896 1.114-.879 2.019-1.965 2.691-3.199 1.901-3.491 3.853-6.961 5.576-10.54 1.864-3.871 3.494-7.855 5.225-11.792l.286-.698c.409 1.607.694 3.181 1.219 4.671.61 1.729 1.365 3.417 2.187 5.058.389.775.344 1.278-.195 1.928-2.256 2.72-4.473 5.473-6.692 8.223-.491.607-.98 1.225-1.389 1.888-.247.403-.411.894-.48 1.364-.133.898.422 1.764 1.383 1.971.878.189 1.813.259 2.708.193 3.097-.228 5.909-1.315 8.395-3.157 3.221-2.386 4.255-5.642 3.475-9.501-.211-1.047-.584-2.065-.947-3.074-.163-.455-.174-.774.123-1.198 2.575-3.677 4.775-7.578 6.821-11.569.081-.157.164-.314.306-.482.663 3.45 1.661 6.775 3.449 9.792-.912.879-1.815 1.676-2.632 2.554-1.799 1.934-3.359 4.034-4.173 6.595-.35 1.104-.619 2.226-.463 3.405.242 1.831 1.742 3.021 3.543 2.604 3.854-.892 7.181-2.708 9.612-5.925 1.636-2.166 1.785-4.582 1.1-7.113-.188-.688-.411-1.365-.651-2.154.951-.295 1.878-.649 2.837-.868 4.979-1.136 9.904-.938 14.702.86 2.801 1.05 5.064 2.807 6.406 5.571 1.639 3.379.733 6.585-2.452 8.721-.297.199-.637.356-.883.605-.151.153-.242.459-.205.67.021.123.346.277.533.275 1.047-.008 1.896-.557 2.711-1.121 2.042-1.413 3.532-3.314 3.853-5.817l.063-.188-.077-1.63c-.031-.094.023-.187.016-.258-.434-3.645-2.381-6.472-5.213-8.688-3.28-2.565-7.153-3.621-11.249-3.788-3.338-.136-6.619.36-9.765 1.503-.897.325-1.786.71-2.688 1.073-.121-.219-.251-.429-.358-.646-.926-1.896-2.048-3.708-2.296-5.882-.176-1.544-.392-3.086-.025-4.613.353-1.469.813-2.913 1.246-4.362.223-.746.066-1.164-.646-1.5-.248-.117-.518-.219-.786-.258-1.75-.254-3.476-.109-5.171.384-.6.175-1.036.511-1.169 1.175-.076.381-.231.746-.339 1.122-.443 1.563-.757 3.156-1.473 4.645-1.794 3.735-3.842 7.329-5.938 10.897-.227.385-.466.763-.752 1.23-.736-1.54-1.521-2.922-1.759-4.542-.269-1.832-.481-3.661-.025-5.479.339-1.356.782-2.687 1.19-4.025.193-.636.104-.97-.472-1.305-.291-.169-.62-.319-.948-.368-1.815-.269-3.603-.128-5.354.438-.543.176-.828.527-.994 1.087-.488 1.652-.904 3.344-1.589 4.915-2.774 6.36-5.628 12.687-8.479 19.013-.595 1.321-1.292 2.596-1.963 3.882-.17.326-.418.613-.63.919-.17-.201-.236-.339-.235-.477.005-.813-.092-1.65.063-2.436.469-2.378 1.009-4.743 1.578-7.099.47-1.946 1.017-3.874 1.538-5.807.175-.647.178-1.252-.287-1.796-.781-.911-2.413-1.111-3.381-.409l-.428.242.083-.69c.204-1.479.245-2.953-.161-4.41-.506-1.816-1.802-2.861-3.686-2.803-.878.027-1.8.177-2.613.497-3.419 1.34-6.048 3.713-8.286 6.568-.203.259-.471.495-.757.654-2.893 1.604-5.795 3.188-8.696 4.778l-3.229 1.769c-.866-.826-1.653-1.683-2.546-2.41-2.727-2.224-5.498-4.393-8.244-6.592-2.434-1.949-4.792-3.979-6.596-6.56-1.342-1.92-2.207-4.021-2.29-6.395-.105-3.025.753-5.789 2.293-8.362 1.97-3.292 4.657-5.934 7.611-8.327 3.125-2.53 6.505-4.678 10.008-6.639 4.901-2.743 9.942-5.171 15.347-6.774 5.542-1.644 11.165-2.585 16.965-1.929 2.28.258 4.494.78 6.527 1.895 1.557.853 2.834 1.97 3.428 3.716.586 1.718.568 3.459.162 5.204-.825 3.534-2.76 6.447-5.195 9.05-3.994 4.267-8.866 7.172-14.351 9.091-3.165 1.107-6.421 1.802-9.765 2.083-2.729.229-5.401-.013-7.985-.962-1.711-.629-3.201-1.591-4.399-2.987-.214-.25-.488-.521-.887-.287-.391.23-.46.602-.329.979.219.626.421 1.278.762 1.838.857 1.405 2.107 2.424 3.483 3.298 2.643 1.681 5.597 2.246 8.66 2.377 4.648.201 9.183-.493 13.654-1.74 6.383-1.78 11.933-4.924 16.384-9.884 3.706-4.13 6.353-8.791 6.92-14.419.277-2.747-.018-5.438-1.304-7.944-1.395-2.715-3.613-4.734-6.265-6.125-3.862-2.025-8.03-3.204-12.332-3.204h-4.31c-5.21 0-10.247 1.493-15.143 3.274-3.706 1.349-7.34 2.941-10.868 4.703-7.683 3.839-14.838 8.468-20.715 14.833-2.928 3.171-5.407 6.67-6.833 10.79-.417 1.206-.813 2.499-1.111 3.746m27.839 36.013c-.333 4.459-2.354 8.074-5.657 11.002-1.858 1.646-3.989 2.818-6.471 3.23-.9.149-1.821.185-2.694-.188-1.245-.532-1.524-1.637-1.548-2.814-.037-1.876.62-3.572 1.521-5.186 1.176-2.104 2.9-3.708 4.741-5.206 2.9-2.361 6.046-4.359 9.268-6.245l.243-.1c.498 1.84.735 3.657.597 5.507zm25.158-19.379c-.235 1.424-.529 2.849-.945 4.229-1.438 4.777-3.285 9.406-5.282 13.973-.369.845-.906 1.616-1.373 2.417-.072.124-.179.231-.283.334-.578.571-1.126.541-1.418-.206-.34-.868-.549-1.797-.729-2.716-.121-.617-.092-1.265-.13-1.897.039-4.494 1.41-8.578 3.736-12.38.959-1.568 2.003-3.062 3.598-4.054.49-.305 1.04-.55 1.595-.706.85-.239 1.372.154 1.231 1.006zm17.164 21.868l6.169-7.203c.257 2.675-4.29 8.015-6.169 7.203zm19.703-4.847c-.436.25-.911.43-1.358.661-.409.212-.544-.002-.556-.354-.008-.239.027-.489.093-.721.833-2.938 2.366-5.446 4.647-7.486l.16-.082c1.085 3.035-.169 6.368-2.986 7.982z"></path>
</symbol>
<symbol id="icon-wordpress" viewBox="0 0 128 128">
<title></title>
<path d="M64.094 126.224c34.275-.052 62.021-27.933 62.021-62.325 0-33.833-27.618-61.697-60.613-62.286-34.652-.618-63.608 27.5-63.617 61.597-.01 35.079 27.612 63.064 62.209 63.014zm-.101-121.594c32.907-.011 59.126 26.725 59.116 60.28-.011 31.679-26.925 58.18-59.092 58.187-32.771.007-59.125-26.563-59.124-59.608.002-32.193 26.766-58.848 59.1-58.859zM39.157 35.896c.538 1.793-.968 2.417-2.569 2.542-1.685.13-3.369.257-5.325.406 6.456 19.234 12.815 38.183 19.325 57.573.464-.759.655-.973.739-1.223 3.574-10.682 7.168-21.357 10.651-32.069.318-.977.16-2.271-.188-3.275-1.843-5.32-4.051-10.524-5.667-15.908-1.105-3.686-2.571-6.071-6.928-5.644-.742.073-1.648-1.524-2.479-2.349 1.005-.6 2.003-1.704 3.017-1.719 8.872-.135 17.747-.135 26.618.008 1.018.017 2.016 1.15 3.021 1.765-.88.804-1.639 2.01-2.668 2.321-1.651.498-3.482.404-5.458.58 6.463 19.225 12.793 38.057 19.349 57.56 2.931-9.736 5.658-18.676 8.31-27.639 2.366-8.001.956-15.473-3.322-22.52-1.286-2.119-2.866-4.175-3.595-6.486-.828-2.629-1.516-5.622-1.077-8.259.745-4.469 4.174-6.688 8.814-7.113-25.392-23.566-65.294-15.13-79.997 10.475 5.66-.261 11.064-.604 16.472-.678 1.022-.013 2.717.851 2.957 1.652zM49.274 113.867c-.118.345-.125.729-.218 1.302 10.943 3.034 21.675 2.815 32.659-.886l-16.78-45.96c-5.37 15.611-10.52 30.575-15.661 45.544zM40.818 111.789l-25.281-69.35c-11.405 22.278-2.729 56.268 25.281 69.35zM117.246 67.227c.802-10.534-2.832-25.119-5.97-27.125-.35 3.875-.106 8.186-1.218 12.114-2.617 9.255-5.817 18.349-8.899 27.468-3.35 9.912-6.832 19.779-10.257 29.666 16.092-9.539 24.935-23.618 26.344-42.123z"></path>
</symbol>
<symbol id="icon-php" viewBox="0 0 128 128">
<title></title>
<path d="M64 33.039c-33.74 0-61.094 13.862-61.094 30.961s27.354 30.961 61.094 30.961 61.094-13.862 61.094-30.961-27.354-30.961-61.094-30.961zm-15.897 36.993c-1.458 1.364-3.077 1.927-4.86 2.507-1.783.581-4.052.461-6.811.461h-6.253l-1.733 10h-7.301l6.515-34h14.04c4.224 0 7.305 1.215 9.242 3.432 1.937 2.217 2.519 5.364 1.747 9.337-.319 1.637-.856 3.159-1.614 4.515-.759 1.357-1.75 2.624-2.972 3.748zm21.311 2.968l2.881-14.42c.328-1.688.208-2.942-.361-3.555-.57-.614-1.782-1.025-3.635-1.025h-5.79l-3.731 19h-7.244l6.515-33h7.244l-1.732 9h6.453c4.061 0 6.861.815 8.402 2.231s2.003 3.356 1.387 6.528l-3.031 15.241h-7.358zm40.259-11.178c-.318 1.637-.856 3.133-1.613 4.488-.758 1.357-1.748 2.598-2.971 3.722-1.458 1.364-3.078 1.927-4.86 2.507-1.782.581-4.053.461-6.812.461h-6.253l-1.732 10h-7.301l6.514-34h14.041c4.224 0 7.305 1.215 9.241 3.432 1.935 2.217 2.518 5.418 1.746 9.39zM95.919 54h-5.001l-2.727 14h4.442c2.942 0 5.136-.29 6.576-1.4 1.442-1.108 2.413-2.828 2.918-5.421.484-2.491.264-4.434-.66-5.458-.925-1.024-2.774-1.721-5.548-1.721zM38.934 54h-5.002l-2.727 14h4.441c2.943 0 5.136-.29 6.577-1.4 1.441-1.108 2.413-2.828 2.917-5.421.484-2.491.264-4.434-.66-5.458s-2.772-1.721-5.546-1.721z"></path>
</symbol>
<symbol id="icon-nodejs" viewBox="0 0 128 128">
<title></title>
<path d="M112.771 30.334l-44.097-25.605c-2.781-1.584-6.402-1.584-9.205 0l-44.568 25.605c-2.87 1.651-4.901 4.754-4.901 8.073v51.142c0 3.319 2.084 6.423 4.954 8.083l11.775 6.688c5.628 2.772 7.617 2.772 10.178 2.772 8.333 0 13.093-5.039 13.093-13.828v-50.49c0-.713-.371-1.774-1.071-1.774h-5.623c-.712 0-2.306 1.061-2.306 1.773v50.49c0 3.896-3.524 7.773-10.11 4.48l-12.167-7.013c-.424-.23-.723-.693-.723-1.181v-51.142c0-.482.555-.966.982-1.213l44.424-25.561c.415-.235 1.025-.235 1.439 0l43.882 25.555c.42.253.272.722.272 1.219v51.142c0 .488.183.963-.232 1.198l-44.086 25.576c-.378.227-.847.227-1.261 0l-11.307-6.749c-.341-.198-.746-.269-1.073-.086-3.146 1.783-3.726 2.02-6.677 3.043-.726.253-1.797.692.41 1.929l14.798 8.754c1.417.82 3.027 1.246 4.647 1.246 1.642 0 3.25-.426 4.667-1.246l43.885-25.582c2.87-1.672 4.23-4.764 4.23-8.083v-51.142c0-3.319-1.36-6.414-4.229-8.073zM77.91 81.445c-11.726 0-14.309-3.235-15.17-9.066-.1-.628-.633-1.379-1.272-1.379h-5.731c-.709 0-1.279.86-1.279 1.566 0 7.466 4.059 16.512 23.453 16.512 14.039 0 22.088-5.455 22.088-15.109 0-9.572-6.467-12.084-20.082-13.886-13.762-1.819-15.16-2.738-15.16-5.962 0-2.658 1.184-6.203 11.374-6.203 9.105 0 12.461 1.954 13.842 8.091.118.577.645.991 1.24.991h5.754c.354 0 .692-.143.94-.396.24-.272.367-.613.335-.979-.891-10.568-7.912-15.493-22.112-15.493-12.631 0-20.166 5.334-20.166 14.275 0 9.698 7.497 12.378 19.622 13.577 14.505 1.422 15.633 3.542 15.633 6.395 0 4.955-3.978 7.066-13.309 7.066z"></path>
</symbol>
<symbol id="icon-git" viewBox="0 0 128 128">
<title></title>
<path d="M124.737 58.378l-55.116-55.114c-3.172-3.174-8.32-3.174-11.497 0l-11.444 11.446 14.518 14.518c3.375-1.139 7.243-.375 9.932 2.314 2.703 2.706 3.461 6.607 2.294 9.993l13.992 13.993c3.385-1.167 7.292-.413 9.994 2.295 3.78 3.777 3.78 9.9 0 13.679-3.78 3.78-9.901 3.78-13.683 0-2.842-2.844-3.545-7.019-2.105-10.521l-13.048-13.048-.002 34.341c.922.455 1.791 1.063 2.559 1.828 3.778 3.777 3.778 9.898 0 13.683-3.779 3.777-9.904 3.777-13.679 0-3.778-3.784-3.778-9.905 0-13.683.934-.933 2.014-1.638 3.167-2.11v-34.659c-1.153-.472-2.231-1.172-3.167-2.111-2.862-2.86-3.551-7.06-2.083-10.576l-14.313-14.313-37.792 37.79c-3.175 3.177-3.175 8.325 0 11.5l55.117 55.114c3.174 3.174 8.32 3.174 11.499 0l54.858-54.858c3.174-3.176 3.174-8.327-.001-11.501z"></path>
</symbol>
<symbol id="icon-vstudio" viewBox="0 0 128 128">
<title></title>
<path d="M95 2.3l30.5 12.3v98.7L94.8 125.7 45.8 77l-31 24.1L2.5 94.9V33.1l12.3-5.9 31 24.3ZM14.8 45.7V83.2l18.5-19Zm48.1 18.5L94.8 89.3V39Z"></path>
</symbol>
<symbol id="icon-ps" viewBox="0 0 128 128">
<title></title>
<path d="M126.216.727c-36.223-.011-72.284-.01-108.508-.01-5.181 0-10.451-.004-15.632.011-.328.001-1.076.153-1.076.236v126.036h126v-126.036c0-.083-.414-.237-.784-.237zm-12.736 113.939c-32.641-.038-65.271-.03-97.912-.03-1.576 0-1.569-.003-1.569-1.627v-97.797c.001-1.607-.015-1.212 1.578-1.212h97.798c1.638 0 1.625-.396 1.625 1.291v48.837c0 16.32-.007 32.64.036 48.959.004 1.243-.289 1.58-1.556 1.579zM56.82 39.644c-6.668-1.563-13.38-.792-20.085-.107-1.423.146-1.695.755-1.691 2.018.043 15.207-.044 30.414-.044 45.621v.824h9v-17.861c5 .375 9.576.286 14.049-1.31 7.169-2.558 10.752-8.111 10.365-16.219-.313-6.548-4.426-11.286-11.594-12.966zm-1.953 22.344c-3.194 1.557-6.59 1.52-10.005 1.058-.266-.036-.675-.511-.677-.784-.04-5.331-.03-10.661-.03-16.138 3.131-.488 6.1-.726 9.062.018 3.673.923 5.804 3.319 6.201 6.917.436 3.954-1.247 7.319-4.551 8.929zM88.168 69.094c-1.469-.805-3.08-1.347-4.606-2.053-1.41-.653-2.833-1.296-4.174-2.076-.935-.543-1.36-1.492-1.36-2.611 0-1.892 1.294-3.417 3.504-3.598 1.649-.135 3.361.035 4.994.34 1.376.256 2.681.899 4.082 1.395l1.767-6.269c-3.345-1.624-6.749-2.235-10.285-2.11-3.006.105-5.814.871-8.352 2.599-4.743 3.229-7.057 11.807.051 16.416 1.805 1.171 3.893 1.905 5.851 2.841 1.218.583 2.489 1.079 3.641 1.772 1.452.874 1.946 2.297 1.694 3.94-.247 1.615-1.33 2.638-2.836 2.874-1.68.264-3.466.435-5.118.144-2.339-.411-4.599-1.281-6.974-1.979-.426 1.59-.831 3.349-1.384 5.06-.303.938-.125 1.401.795 1.768 5.617 2.231 11.334 2.69 17.082.717 4.296-1.475 6.915-4.524 7.256-9.169.332-4.527-1.708-7.851-5.628-10.001z"></path>
</symbol>
<symbol id="icon-ai" viewBox="0 0 128 128">
<title></title>
<path d="M1 1v125.792c1 .082.99.235 1.359.235 36.269.011 72.665.011 108.934.011 4.994 0 9.859.004 14.854-.011.328-.001.854-.153.854-.235-.001-41.959-.001-83.792-.001-125.792h-126zm114 62.914v48.551c0 1.688-.253 1.535-1.88 1.535h-97.349c-1.627 0-1.771.154-1.771-1.534v-97.226c0-1.689.144-2.24 1.894-2.24h97.103c1.751 0 2.003.551 2.003 2.363v48.551zM64.414 40.368c-.214-.662-.612-.696-1.193-.693-3.114.019-6.229.069-9.341 0-.984-.021-1.411.274-1.715 1.233-4.385 13.785-8.817 27.561-13.233 41.336-.72 2.246-1.417 4.501-2.185 6.939 2.911 0 5.571-.04 8.229.026.903.022 1.279-.275 1.525-1.126 1.138-3.924 2.37-7.821 3.497-11.748.265-.926.694-1.176 1.625-1.165 4.424.052 8.85.052 13.274 0 .861-.01 1.211.268 1.455 1.062 1.213 3.949 2.502 7.874 3.714 11.823.251.816.566 1.13 1.507 1.062 1.303-.095 2.619-.117 3.93-.117h4.592l-.021-.331c-5.222-16.107-10.451-32.19-15.66-48.301zm-12.413 27.632c2.037-7 4.059-13.848 6.051-20.644 2.053 6.772 4.141 13.644 6.26 20.644h-12.311zM82 89h10v-36h-10v36zM87.071 38.555c-2.963.003-5.151 2.107-5.131 4.936.02 2.837 2.122 4.857 5.057 4.862 3.051.004 5.208-2.015 5.187-4.856-.022-2.91-2.127-4.945-5.113-4.942z"></path>
</symbol>

<symbol id="icon-linkedin" viewBox="0 0 32 32">
<path d="M29 0h-26c-1.65 0-3 1.35-3 3v26c0 1.65 1.35 3 3 3h26c1.65 0 3-1.35 3-3v-26c0-1.65-1.35-3-3-3zM12 26h-4v-14h4v14zM10 10c-1.106 0-2-0.894-2-2s0.894-2 2-2c1.106 0 2 0.894 2 2s-0.894 2-2 2zM26 26h-4v-8c0-1.106-0.894-2-2-2s-2 0.894-2 2v8h-4v-14h4v2.481c0.825-1.131 2.087-2.481 3.5-2.481 2.488 0 4.5 2.238 4.5 5v9z"></path>
</symbol>

<symbol id="icon-github" viewBox="0 0 32 32">
<path d="M16 0.395c-8.836 0-16 7.163-16 16 0 7.069 4.585 13.067 10.942 15.182 0.8 0.148 1.094-0.347 1.094-0.77 0-0.381-0.015-1.642-0.022-2.979-4.452 0.968-5.391-1.888-5.391-1.888-0.728-1.849-1.776-2.341-1.776-2.341-1.452-0.993 0.11-0.973 0.11-0.973 1.606 0.113 2.452 1.649 2.452 1.649 1.427 2.446 3.743 1.739 4.656 1.33 0.143-1.034 0.558-1.74 1.016-2.14-3.554-0.404-7.29-1.777-7.29-7.907 0-1.747 0.625-3.174 1.649-4.295-0.166-0.403-0.714-2.030 0.155-4.234 0 0 1.344-0.43 4.401 1.64 1.276-0.355 2.645-0.532 4.005-0.539 1.359 0.006 2.729 0.184 4.008 0.539 3.054-2.070 4.395-1.64 4.395-1.64 0.871 2.204 0.323 3.831 0.157 4.234 1.026 1.12 1.647 2.548 1.647 4.295 0 6.145-3.743 7.498-7.306 7.895 0.574 0.497 1.085 1.47 1.085 2.963 0 2.141-0.019 3.864-0.019 4.391 0 0.426 0.288 0.925 1.099 0.768 6.354-2.118 10.933-8.113 10.933-15.18 0-8.837-7.164-16-16-16z"></path>
</symbol>

<symbol id="icon-behance2" viewBox="0 0 32 32">
<path d="M12.631 14.019c0.406-0.294 0.6-0.781 0.6-1.456 0-0.375-0.063-0.681-0.194-0.919-0.137-0.238-0.313-0.425-0.544-0.556-0.225-0.137-0.481-0.231-0.775-0.281-0.287-0.056-0.594-0.081-0.906-0.081h-3.294v3.737h3.563c0.625 0.006 1.144-0.144 1.55-0.444z"></path>
<path d="M13.188 17.394c-0.463-0.35-1.075-0.525-1.838-0.525h-3.831v4.406h3.756c0.35 0 0.675-0.031 0.988-0.1s0.594-0.175 0.831-0.337c0.238-0.156 0.431-0.369 0.575-0.637s0.213-0.619 0.213-1.038c0-0.825-0.231-1.413-0.694-1.769z"></path>
<path d="M29 0h-26c-1.65 0-3 1.35-3 3v26c0 1.65 1.35 3 3 3h26c1.65 0 3-1.35 3-3v-26c0-1.65-1.35-3-3-3zM20.975 8.419h6.481v1.581h-6.481v-1.581zM16.925 21.45c-0.313 0.594-0.738 1.075-1.262 1.45-0.531 0.375-1.137 0.65-1.819 0.831-0.675 0.181-1.375 0.269-2.088 0.269h-7.756v-15.994h7.537c0.762 0 1.456 0.069 2.088 0.2 0.625 0.131 1.162 0.356 1.613 0.662 0.444 0.306 0.794 0.713 1.044 1.219 0.244 0.5 0.369 1.131 0.369 1.875 0 0.806-0.181 1.475-0.55 2.012s-0.906 0.975-1.631 1.319c0.988 0.281 1.713 0.781 2.194 1.487 0.488 0.712 0.725 1.569 0.725 2.569 0.006 0.819-0.15 1.519-0.462 2.1zM29.981 18.975h-8.356c0 0.913 0.313 1.781 0.788 2.25 0.475 0.462 1.163 0.7 2.056 0.7 0.644 0 1.194-0.163 1.663-0.488 0.462-0.325 0.744-0.669 0.85-1.025h2.8c-0.45 1.394-1.131 2.387-2.063 2.988-0.919 0.6-2.044 0.9-3.35 0.9-0.913 0-1.731-0.15-2.469-0.438-0.738-0.294-1.35-0.706-1.869-1.244-0.506-0.538-0.894-1.181-1.175-1.931-0.275-0.744-0.419-1.575-0.419-2.469 0-0.869 0.144-1.675 0.425-2.425 0.288-0.75 0.688-1.4 1.212-1.938 0.525-0.544 1.15-0.975 1.875-1.294 0.725-0.313 1.525-0.469 2.413-0.469 0.981 0 1.837 0.188 2.575 0.575 0.731 0.381 1.331 0.894 1.806 1.537s0.806 1.375 1.019 2.2c0.206 0.813 0.275 1.669 0.219 2.569z"></path>
<path d="M24.269 14.494c-0.506 0-0.931 0.088-1.262 0.262s-0.6 0.387-0.806 0.637c-0.206 0.256-0.344 0.525-0.425 0.819-0.081 0.281-0.131 0.538-0.144 0.762h5.175c-0.075-0.813-0.356-1.412-0.731-1.831-0.387-0.425-1.025-0.65-1.806-0.65z"></path>
</symbol>

<symbol id="icon-vimeo" viewBox="0 0 32 32">
<path d="M31.988 8.563c-0.144 3.113-2.319 7.381-6.525 12.794-4.35 5.65-8.031 8.481-11.044 8.481-1.863 0-3.444-1.719-4.731-5.163-0.863-3.156-1.719-6.313-2.581-9.469-0.956-3.444-1.981-5.162-3.081-5.162-0.237 0-1.075 0.506-2.513 1.506l-1.506-1.938c1.581-1.387 3.138-2.775 4.669-4.162 2.106-1.819 3.688-2.775 4.744-2.875 2.487-0.237 4.025 1.463 4.6 5.106 0.619 3.931 1.050 6.375 1.294 7.331 0.719 3.263 1.506 4.894 2.369 4.894 0.669 0 1.675-1.056 3.019-3.175 1.337-2.113 2.056-3.725 2.156-4.831 0.194-1.825-0.525-2.744-2.156-2.744-0.769 0-1.556 0.175-2.369 0.525 1.575-5.15 4.575-7.65 9.012-7.506 3.281 0.087 4.831 2.219 4.644 6.388z"></path>
</symbol>



</defs>
</svg>

